<svg width="138" height="38" viewBox="0 0 138 38" fill="none" xmlns="http://www.w3.org/2000/svg">
<g clip-path="url(#clip0_19_14090)">
<path d="M50.2562 15.3223H40.562V17.8016H48.6942V19.3388H40.562C40.1157 19.3388 39.7438 19.4876 39.4463 19.7851C39.124 20.0826 38.9752 20.4793 38.9752 20.9256V24.4463C38.9752 24.9173 39.124 25.2892 39.4463 25.5868C39.7686 25.8843 40.1405 26.0331 40.562 26.0331H50.2562C50.7025 26.0331 51.0744 25.8843 51.3719 25.562C51.6942 25.2645 51.843 24.8678 51.843 24.4215V16.8843C51.843 16.438 51.6942 16.0413 51.3719 15.7438C51.0496 15.4463 50.6777 15.2727 50.2562 15.2727V15.3223ZM48.6942 23.5785H42.0992V21.8182H48.6942V23.5785Z" fill="#152356"></path>
<path d="M57.6199 10.7355H54.4711V26.0578H57.6199V10.7355Z" fill="#152356"></path>
<path d="M60.719 15.7934C60.3967 16.0909 60.2479 16.4876 60.2479 16.9339V24.4711C60.2479 24.9421 60.3967 25.314 60.719 25.6116C61.0413 25.9091 61.4132 26.0578 61.8347 26.0578H73.1157V23.0082H63.3719V18.3719H73.1157V15.3223H61.8347C61.3884 15.3223 61.0165 15.4711 60.719 15.7686V15.7934Z" fill="#152356"></path>
<path d="M86.5042 15.3223H78.5951V10.7355H75.4463V26.0578H78.5951V18.3719H84.967V26.0578H88.1158V16.9339C88.1158 16.4876 87.967 16.1157 87.6447 15.8182C87.3472 15.4959 86.9505 15.3471 86.5042 15.3471V15.3223Z" fill="#152356"></path>
<path d="M101.876 15.3223H91.9091C91.4629 15.3223 91.091 15.4711 90.7934 15.7934C90.4711 16.0909 90.3224 16.4876 90.3224 16.9339V24.4711C90.3224 24.9173 90.4711 25.314 90.7934 25.6116C91.1158 25.9091 91.4877 26.0826 91.9091 26.0826H103.364V23.5785H93.4463V22.0661H101.876C102.322 22.0661 102.694 21.9173 102.992 21.595C103.314 21.2975 103.463 20.9008 103.463 20.4545V16.9339C103.463 16.4876 103.314 16.0909 102.992 15.7934C102.669 15.4959 102.298 15.3223 101.876 15.3223ZM100.314 19.6116H93.4463V17.8264H100.314V19.6116Z" fill="#152356"></path>
<path d="M121.19 15.3223H107.033C106.587 15.3223 106.19 15.4711 105.893 15.7934C105.595 16.1157 105.421 16.4876 105.421 16.9339V26.0578H108.57V18.3719H112.537V26.0578H115.686V18.3719H119.628V26.0578H122.777V16.9339C122.777 16.4876 122.628 16.0909 122.306 15.7934C121.983 15.4959 121.612 15.3223 121.165 15.3223H121.19Z" fill="#152356"></path>
<path d="M134.826 15.3223V19.562H127.736V15.3223H124.587V20.4545C124.587 20.9008 124.736 21.2975 125.058 21.595C125.38 21.8925 125.752 22.0661 126.198 22.0661H134.851V23.6033H125.207V26.0826H136.413C136.86 26.0826 137.231 25.9339 137.529 25.6116C137.851 25.314 138 24.9173 138 24.4711V15.3471H134.826V15.3223Z" fill="#152356"></path>
<path d="M30.7686 13.5124L21.1488 1.33884C20.4793 0.495868 19.4628 0 18.3719 0C17.281 0 17.7769 0.0495868 17.4793 0.123967L10.8843 1.8595C10.2149 2.03306 9.61983 2.38017 9.17355 2.90083L0.917355 11.9752C0.322314 12.6198 0 13.4628 0 14.3554V25.4132C0 26.5041 0.520661 27.5455 1.36364 28.2149L11.9504 36.3719C12.5702 36.843 13.3388 37.1157 14.1074 37.1157C14.876 37.1157 15.2727 36.9669 15.7686 36.6942L29.6529 29.2562C30.7934 28.6364 31.5124 27.4463 31.5124 26.157V15.719C31.5124 14.9256 31.2397 14.157 30.7438 13.5372H30.7686V13.5124ZM29.2066 26.1322C29.2066 26.5785 28.9587 26.9752 28.5868 27.1736L14.7025 34.6116C14.5289 34.7107 14.3306 34.7603 14.1322 34.7603C13.9339 34.7603 13.6116 34.686 13.4132 34.5124L2.82645 26.3554C2.52893 26.1322 2.35537 25.7851 2.35537 25.4132V14.3554C2.35537 14.0579 2.45455 13.7851 2.65289 13.562L10.9091 4.4876C11.0579 4.31405 11.2562 4.19008 11.4793 4.1405L18.0744 2.40496C18.1736 2.40496 18.2727 2.35537 18.3719 2.35537C18.719 2.35537 19.0661 2.52893 19.3141 2.80165L28.9339 14.9752C29.1074 15.1736 29.1818 15.4463 29.1818 15.719V26.157H29.2066V26.1322Z" fill="#00F0FF"></path>
<path d="M9.5703 21.8678L14.281 31.2149L19.7108 23.2066L9.5703 21.8678Z" fill="#1649DF"></path>
<path d="M4.7356 24.8182L10.7108 29.4298L4.7356 18.3719V24.8182Z" fill="#5BA2FF"></path>
<path d="M17.8265 30.2479L25.6364 26.0579L22.1157 23.9008L17.8265 30.2479Z" fill="#1649DF"></path>
<path d="M9.24794 9.84298L5.05786 14.4793L7.06613 17.5537L9.24794 9.84298Z" fill="#00F0FF"></path>
<path d="M12.3968 7.58676L9.372 18.0992L18.2976 13.5868L12.3968 7.58676Z" fill="#00F0FF"></path>
<path d="M26.8266 24V16.1157L20.4051 8.03306L22.8596 21.5455L26.8266 24Z" fill="#1649DF"></path>
<path d="M20.3307 20.876L19.3885 15.6942L11.4546 19.7107L20.3307 20.876Z" fill="#5BA2FF"></path>
<path d="M14.0828 5.90082L18.4216 10.314L17.4547 5.03305L14.0828 5.90082Z" fill="#00F0FF"></path>
<path d="M28.9339 14.9752L19.3141 2.80165C19.0909 2.50413 18.7438 2.35537 18.3719 2.35537C18 2.35537 18.1736 2.35537 18.0744 2.40496L11.4793 4.14049C11.2562 4.19008 11.0579 4.31405 10.9091 4.4876L2.65289 13.562C2.45455 13.7851 2.35537 14.0579 2.35537 14.3554V25.4132C2.35537 25.7851 2.52893 26.1322 2.82645 26.3554L13.4132 34.5124C13.6364 34.686 13.8843 34.7603 14.1322 34.7603C14.3802 34.7603 14.5289 34.7107 14.7025 34.6116L28.5868 27.1736C28.9835 26.9752 29.2066 26.5537 29.2066 26.1322V15.6942C29.2066 15.4215 29.1074 15.1736 28.9587 14.9504H28.9339V14.9752ZM4.73554 24.8182V18.3471L10.7107 29.405L4.73554 24.8182ZM17.4545 5.03306L18.4215 10.314L14.0826 5.90083L17.4545 5.00826V5.03306ZM18.2975 13.5868L9.3719 18.0992L12.3719 7.58678L18.2727 13.6116L18.2975 13.5868ZM19.3884 15.6942L20.3058 20.876L11.4545 19.7107L19.3884 15.6942ZM9.24794 9.84297L7.04132 17.5537L5.03306 14.4793L9.24794 9.84297ZM9.57025 21.8678L19.7107 23.2066L14.281 31.2149L9.57025 21.8678ZM22.1157 23.9008L25.6116 26.0826L17.8017 30.2479L22.0909 23.9008H22.1157ZM26.8265 24L22.8595 21.5455L20.405 8.03306L26.8017 16.1405V24.0248H26.8265V24Z" fill="#152356"></path>
<path d="M50.2562 15.3223H40.562V17.8016H48.6942V19.3388H40.562C40.1157 19.3388 39.7438 19.4876 39.4463 19.7851C39.124 20.0826 38.9752 20.4793 38.9752 20.9256V24.4463C38.9752 24.9173 39.124 25.2892 39.4463 25.5868C39.7686 25.8843 40.1405 26.0331 40.562 26.0331H50.2562C50.7025 26.0331 51.0744 25.8843 51.3719 25.562C51.6942 25.2645 51.843 24.8678 51.843 24.4215V16.8843C51.843 16.438 51.6942 16.0413 51.3719 15.7438C51.0496 15.4463 50.6777 15.2727 50.2562 15.2727V15.3223ZM48.6942 23.5785H42.0992V21.8182H48.6942V23.5785Z" fill="white"></path>
<path d="M57.6199 10.7355H54.4711V26.0578H57.6199V10.7355Z" fill="white"></path>
<path d="M60.719 15.7934C60.3967 16.0909 60.2479 16.4876 60.2479 16.9339V24.4711C60.2479 24.9421 60.3967 25.314 60.719 25.6116C61.0413 25.9091 61.4132 26.0578 61.8347 26.0578H73.1157V23.0082H63.3719V18.3719H73.1157V15.3223H61.8347C61.3884 15.3223 61.0165 15.4711 60.719 15.7686V15.7934Z" fill="white"></path>
<path d="M86.5042 15.3223H78.5951V10.7355H75.4463V26.0578H78.5951V18.3719H84.967V26.0578H88.1158V16.9339C88.1158 16.4876 87.967 16.1157 87.6447 15.8182C87.3472 15.4959 86.9505 15.3471 86.5042 15.3471V15.3223Z" fill="white"></path>
<path d="M101.876 15.3223H91.9091C91.4629 15.3223 91.091 15.4711 90.7934 15.7934C90.4711 16.0909 90.3224 16.4876 90.3224 16.9339V24.4711C90.3224 24.9173 90.4711 25.314 90.7934 25.6116C91.1158 25.9091 91.4877 26.0826 91.9091 26.0826H103.364V23.5785H93.4463V22.0661H101.876C102.322 22.0661 102.694 21.9173 102.992 21.595C103.314 21.2975 103.463 20.9008 103.463 20.4545V16.9339C103.463 16.4876 103.314 16.0909 102.992 15.7934C102.669 15.4959 102.298 15.3223 101.876 15.3223ZM100.314 19.6116H93.4463V17.8264H100.314V19.6116Z" fill="white"></path>
<path d="M121.19 15.3223H107.033C106.587 15.3223 106.19 15.4711 105.893 15.7934C105.595 16.1157 105.421 16.4876 105.421 16.9339V26.0578H108.57V18.3719H112.537V26.0578H115.686V18.3719H119.628V26.0578H122.777V16.9339C122.777 16.4876 122.628 16.0909 122.306 15.7934C121.983 15.4959 121.612 15.3223 121.165 15.3223H121.19Z" fill="white"></path>
<path d="M134.826 15.3223V19.562H127.736V15.3223H124.587V20.4545C124.587 20.9008 124.736 21.2975 125.058 21.595C125.38 21.8925 125.752 22.0661 126.198 22.0661H134.851V23.6033H125.207V26.0826H136.413C136.86 26.0826 137.231 25.9339 137.529 25.6116C137.851 25.314 138 24.9173 138 24.4711V15.3471H134.826V15.3223Z" fill="white"></path>
<path d="M30.7686 13.5124L21.1488 1.33884C20.4793 0.495868 19.4628 0 18.3719 0C17.281 0 17.7769 0.0495868 17.4793 0.123967L10.8843 1.8595C10.2149 2.03306 9.61983 2.38017 9.17355 2.90083L0.917355 11.9752C0.322314 12.6198 0 13.4628 0 14.3554V25.4132C0 26.5041 0.520661 27.5455 1.36364 28.2149L11.9504 36.3719C12.5702 36.843 13.3388 37.1157 14.1074 37.1157C14.876 37.1157 15.2727 36.9669 15.7686 36.6942L29.6529 29.2562C30.7934 28.6364 31.5124 27.4463 31.5124 26.157V15.719C31.5124 14.9256 31.2397 14.157 30.7438 13.5372H30.7686V13.5124ZM29.2066 26.1322C29.2066 26.5785 28.9587 26.9752 28.5868 27.1736L14.7025 34.6116C14.5289 34.7107 14.3306 34.7603 14.1322 34.7603C13.9339 34.7603 13.6116 34.686 13.4132 34.5124L2.82645 26.3554C2.52893 26.1322 2.35537 25.7851 2.35537 25.4132V14.3554C2.35537 14.0579 2.45455 13.7851 2.65289 13.562L10.9091 4.4876C11.0579 4.31405 11.2562 4.19008 11.4793 4.1405L18.0744 2.40496C18.1736 2.40496 18.2727 2.35537 18.3719 2.35537C18.719 2.35537 19.0661 2.52893 19.3141 2.80165L28.9339 14.9752C29.1074 15.1736 29.1818 15.4463 29.1818 15.719V26.157H29.2066V26.1322Z" fill="#00F0FF"></path>
<path d="M9.5703 21.8678L14.281 31.2149L19.7108 23.2066L9.5703 21.8678Z" fill="#1649DF"></path>
<path d="M4.7356 24.8182L10.7108 29.4298L4.7356 18.3719V24.8182Z" fill="#5BA2FF"></path>
<path d="M17.8265 30.2479L25.6364 26.0579L22.1157 23.9008L17.8265 30.2479Z" fill="#1649DF"></path>
<path d="M9.24794 9.84298L5.05786 14.4793L7.06613 17.5537L9.24794 9.84298Z" fill="#00F0FF"></path>
<path d="M12.3968 7.58676L9.372 18.0992L18.2976 13.5868L12.3968 7.58676Z" fill="#00F0FF"></path>
<path d="M26.8266 24V16.1157L20.4051 8.03306L22.8596 21.5455L26.8266 24Z" fill="#1649DF"></path>
<path d="M20.3307 20.876L19.3885 15.6942L11.4546 19.7107L20.3307 20.876Z" fill="#5BA2FF"></path>
<path d="M14.0828 5.90082L18.4216 10.314L17.4547 5.03305L14.0828 5.90082Z" fill="#00F0FF"></path>
<path d="M28.9339 14.9752L19.3141 2.80165C19.0909 2.50413 18.7438 2.35537 18.3719 2.35537C18 2.35537 18.1736 2.35537 18.0744 2.40496L11.4793 4.14049C11.2562 4.19008 11.0579 4.31405 10.9091 4.4876L2.65289 13.562C2.45455 13.7851 2.35537 14.0579 2.35537 14.3554V25.4132C2.35537 25.7851 2.52893 26.1322 2.82645 26.3554L13.4132 34.5124C13.6364 34.686 13.8843 34.7603 14.1322 34.7603C14.3802 34.7603 14.5289 34.7107 14.7025 34.6116L28.5868 27.1736C28.9835 26.9752 29.2066 26.5537 29.2066 26.1322V15.6942C29.2066 15.4215 29.1074 15.1736 28.9587 14.9504H28.9339V14.9752ZM4.73554 24.8182V18.3471L10.7107 29.405L4.73554 24.8182ZM17.4545 5.03306L18.4215 10.314L14.0826 5.90083L17.4545 5.00826V5.03306ZM18.2975 13.5868L9.3719 18.0992L12.3719 7.58678L18.2727 13.6116L18.2975 13.5868ZM19.3884 15.6942L20.3058 20.876L11.4545 19.7107L19.3884 15.6942ZM9.24794 9.84297L7.04132 17.5537L5.03306 14.4793L9.24794 9.84297ZM9.57025 21.8678L19.7107 23.2066L14.281 31.2149L9.57025 21.8678ZM22.1157 23.9008L25.6116 26.0826L17.8017 30.2479L22.0909 23.9008H22.1157ZM26.8265 24L22.8595 21.5455L20.405 8.03306L26.8017 16.1405V24.0248H26.8265V24Z" fill="#152356"></path>
</g>
<defs>
<clipPath id="clip0_19_14090">
<rect width="138" height="37.1157" fill="white"></rect>
</clipPath>
</defs>
</svg>