<svg width="289" height="78" viewBox="0 0 289 78" fill="none" xmlns="http://www.w3.org/2000/svg">
<g clip-path="url(#clip0_13869_5591)">
<path d="M105.247 32.088H84.945V37.2802H101.976V40.4994H84.945C84.0104 40.4994 83.2315 40.8109 82.6085 41.434C81.9335 42.0571 81.6219 42.8878 81.6219 43.8224V51.1954C81.6219 52.1819 81.9335 52.9608 82.6085 53.5838C83.2835 54.2069 84.0623 54.5185 84.945 54.5185H105.247C106.181 54.5185 106.96 54.2069 107.583 53.5319C108.258 52.9089 108.57 52.0781 108.57 51.1435V35.3591C108.57 34.4245 108.258 33.5937 107.583 32.9707C106.908 32.3476 106.129 31.9841 105.247 31.9841V32.088ZM101.976 49.3781H88.1642V45.6916H101.976V49.3781Z" fill="#152356"></path>
<path d="M120.668 22.4824H114.073V54.5704H120.668V22.4824Z" fill="#152356"></path>
<path d="M127.158 33.0745C126.483 33.6976 126.171 34.5284 126.171 35.463V51.2474C126.171 52.2339 126.483 53.0127 127.158 53.6358C127.833 54.2589 128.612 54.5704 129.494 54.5704H153.119V48.184H132.714V38.4745H153.119V32.088H129.494C128.56 32.088 127.781 32.3995 127.158 33.0226V33.0745Z" fill="#152356"></path>
<path d="M181.157 32.088H164.594V22.4824H158V54.5704H164.594V38.4745H177.938V54.5704H184.532V35.463C184.532 34.5284 184.221 33.7495 183.546 33.1265C182.923 32.4515 182.092 32.1399 181.157 32.1399V32.088Z" fill="#152356"></path>
<path d="M213.349 32.088H192.476C191.542 32.088 190.763 32.3995 190.14 33.0745C189.465 33.6976 189.153 34.5284 189.153 35.463V51.2474C189.153 52.182 189.465 53.0127 190.14 53.6358C190.815 54.2589 191.594 54.6223 192.476 54.6223H216.464V49.3782H195.695V46.2109H213.349C214.284 46.2109 215.063 45.8994 215.686 45.2244C216.361 44.6013 216.672 43.7706 216.672 42.8359V35.463C216.672 34.5284 216.361 33.6976 215.686 33.0745C215.011 32.4515 214.232 32.088 213.349 32.088ZM210.078 41.0706H195.695V37.3322H210.078V41.0706Z" fill="#152356"></path>
<path d="M253.797 32.088H224.149C223.214 32.088 222.384 32.3995 221.76 33.0745C221.137 33.7495 220.774 34.5284 220.774 35.463V54.5704H227.368V38.4745H235.676V54.5704H242.27V38.4745H250.525V54.5704H257.12V35.463C257.12 34.5284 256.808 33.6976 256.133 33.0745C255.458 32.4515 254.679 32.088 253.745 32.088H253.797Z" fill="#152356"></path>
<path d="M282.354 32.088V40.9667H267.504V32.088H260.91V42.8359C260.91 43.7706 261.221 44.6013 261.896 45.2244C262.571 45.8474 263.35 46.2109 264.285 46.2109H282.406V49.4301H262.208V54.6223H285.677C286.612 54.6223 287.39 54.3108 288.013 53.6358C288.688 53.0127 289 52.182 289 51.2474V32.1399H282.354V32.088Z" fill="#152356"></path>
<path d="M64.4357 28.2977L44.2898 2.80381C42.8879 1.03845 40.7591 0 38.4745 0C36.1899 0 37.2284 0.103845 36.6053 0.259612L22.7939 3.89418C21.392 4.25764 20.1459 4.98455 19.2113 6.07492L1.92113 25.0785C0.674991 26.4285 0 28.1939 0 30.0631V53.2204C0 55.505 1.09037 57.6858 2.85573 59.0877L25.0266 76.1701C26.3247 77.1567 27.9342 77.7278 29.5438 77.7278C31.1534 77.7278 31.9842 77.4163 33.0226 76.8451L62.0992 61.2684C64.4876 59.9704 65.9934 57.4781 65.9934 54.7781V32.9188C65.9934 31.2573 65.4222 29.6477 64.3838 28.3496H64.4357V28.2977ZM61.1646 54.7262C61.1646 55.6608 60.6453 56.4916 59.8665 56.9069L30.79 72.4837C30.4265 72.6913 30.0111 72.7952 29.5958 72.7952C29.1804 72.7952 28.5054 72.6394 28.09 72.276L5.91915 55.1935C5.29608 54.7262 4.93263 53.9993 4.93263 53.2204V30.0631C4.93263 29.44 5.14032 28.8688 5.5557 28.4015L22.8459 9.39795C23.1574 9.0345 23.5728 8.77488 24.0401 8.67104L37.8514 5.03647C38.0591 5.03647 38.2668 4.93263 38.4745 4.93263C39.2014 4.93263 39.9283 5.29608 40.4475 5.86723L60.5934 31.3611C60.9569 31.7765 61.1126 32.3476 61.1126 32.9188V54.7781H61.1646V54.7262Z" fill="#00F0FF"></path>
<path d="M20.0422 45.7956L29.9074 65.3703L41.2784 48.5994L20.0422 45.7956Z" fill="#1649DF"></path>
<path d="M9.9173 51.9744L22.4306 61.6319L9.9173 38.4745V51.9744Z" fill="#5BA2FF"></path>
<path d="M37.3323 63.3453L53.6878 54.5704L46.3148 50.0532L37.3323 63.3453Z" fill="#1649DF"></path>
<path d="M19.3671 20.6133L10.5922 30.3228L14.7979 36.7611L19.3671 20.6133Z" fill="#00F0FF"></path>
<path d="M25.9614 15.8883L19.6269 37.9034L38.319 28.4535L25.9614 15.8883Z" fill="#00F0FF"></path>
<path d="M56.1802 50.2609V33.7496L42.7323 16.8229L47.8726 45.1206L56.1802 50.2609Z" fill="#1649DF"></path>
<path d="M42.5765 43.7186L40.6035 32.8668L23.9883 41.2782L42.5765 43.7186Z" fill="#5BA2FF"></path>
<path d="M29.4922 12.3576L38.5786 21.5998L36.5536 10.5403L29.4922 12.3576Z" fill="#00F0FF"></path>
<path d="M60.5935 31.361L40.4476 5.8671C39.9803 5.24403 39.2533 4.9325 38.4745 4.9325C37.6957 4.9325 38.0591 4.9325 37.8514 5.03634L24.0401 8.67091C23.5728 8.77475 23.1574 9.03436 22.8459 9.39782L5.55572 28.4014C5.14034 28.8687 4.93265 29.4399 4.93265 30.0629V53.2203C4.93265 53.9992 5.2961 54.7261 5.91917 55.1934L28.09 72.2758C28.5573 72.6393 29.0766 72.7951 29.5958 72.7951C30.115 72.7951 30.4265 72.6912 30.79 72.4835L59.8665 56.9068C60.6973 56.4914 61.1646 55.6088 61.1646 54.7261V32.8667C61.1646 32.2956 60.9569 31.7764 60.6454 31.3091H60.5935V31.361ZM9.9172 51.9742V38.4224L22.4305 61.5798L9.9172 51.9742ZM36.5534 10.5401L38.5784 21.5996L29.4919 12.3574L36.5534 10.4882V10.5401ZM38.3187 28.4533L19.6267 37.9032L25.9093 15.8881L38.2668 28.5053L38.3187 28.4533ZM40.6033 32.8667L42.5245 43.7185L23.9882 41.2782L40.6033 32.8667ZM19.3671 20.6131L14.746 36.7609L10.5403 30.3225L19.3671 20.6131ZM20.0421 45.7954L41.2783 48.5992L29.9073 65.3702L20.0421 45.7954ZM46.3148 50.0531L53.6359 54.6222L37.2803 63.3452L46.2629 50.0531H46.3148ZM56.18 50.2607L47.8725 45.1204L42.7322 16.8227L56.1281 33.8013V50.3127H56.18V50.2607Z" fill="#152356"></path>
<path d="M105.247 32.088H84.945V37.2802H101.976V40.4994H84.945C84.0104 40.4994 83.2315 40.8109 82.6085 41.434C81.9335 42.0571 81.6219 42.8878 81.6219 43.8224V51.1954C81.6219 52.1819 81.9335 52.9608 82.6085 53.5838C83.2835 54.2069 84.0623 54.5185 84.945 54.5185H105.247C106.181 54.5185 106.96 54.2069 107.583 53.5319C108.258 52.9089 108.57 52.0781 108.57 51.1435V35.3591C108.57 34.4245 108.258 33.5937 107.583 32.9707C106.908 32.3476 106.129 31.9841 105.247 31.9841V32.088ZM101.976 49.3781H88.1642V45.6916H101.976V49.3781Z" fill="white"></path>
<path d="M120.668 22.4824H114.073V54.5704H120.668V22.4824Z" fill="white"></path>
<path d="M127.158 33.0745C126.483 33.6976 126.171 34.5284 126.171 35.463V51.2474C126.171 52.2339 126.483 53.0127 127.158 53.6358C127.833 54.2589 128.612 54.5704 129.494 54.5704H153.119V48.184H132.714V38.4745H153.119V32.088H129.494C128.56 32.088 127.781 32.3995 127.158 33.0226V33.0745Z" fill="white"></path>
<path d="M181.157 32.088H164.594V22.4824H158V54.5704H164.594V38.4745H177.938V54.5704H184.532V35.463C184.532 34.5284 184.221 33.7495 183.546 33.1265C182.923 32.4515 182.092 32.1399 181.157 32.1399V32.088Z" fill="white"></path>
<path d="M213.349 32.088H192.476C191.542 32.088 190.763 32.3995 190.14 33.0745C189.465 33.6976 189.153 34.5284 189.153 35.463V51.2474C189.153 52.182 189.465 53.0127 190.14 53.6358C190.815 54.2589 191.594 54.6223 192.476 54.6223H216.464V49.3782H195.695V46.2109H213.349C214.284 46.2109 215.063 45.8994 215.686 45.2244C216.361 44.6013 216.672 43.7706 216.672 42.8359V35.463C216.672 34.5284 216.361 33.6976 215.686 33.0745C215.011 32.4515 214.232 32.088 213.349 32.088ZM210.078 41.0706H195.695V37.3322H210.078V41.0706Z" fill="white"></path>
<path d="M253.797 32.088H224.149C223.214 32.088 222.384 32.3995 221.76 33.0745C221.137 33.7495 220.774 34.5284 220.774 35.463V54.5704H227.368V38.4745H235.676V54.5704H242.27V38.4745H250.525V54.5704H257.12V35.463C257.12 34.5284 256.808 33.6976 256.133 33.0745C255.458 32.4515 254.679 32.088 253.745 32.088H253.797Z" fill="white"></path>
<path d="M282.354 32.088V40.9667H267.504V32.088H260.91V42.8359C260.91 43.7706 261.221 44.6013 261.896 45.2244C262.571 45.8474 263.35 46.2109 264.285 46.2109H282.406V49.4301H262.208V54.6223H285.677C286.612 54.6223 287.39 54.3108 288.013 53.6358C288.688 53.0127 289 52.182 289 51.2474V32.1399H282.354V32.088Z" fill="white"></path>
<path d="M64.4357 28.2977L44.2898 2.80381C42.8879 1.03845 40.7591 0 38.4745 0C36.1899 0 37.2284 0.103845 36.6053 0.259612L22.7939 3.89418C21.392 4.25764 20.1459 4.98455 19.2113 6.07492L1.92113 25.0785C0.674991 26.4285 0 28.1939 0 30.0631V53.2204C0 55.505 1.09037 57.6858 2.85573 59.0877L25.0266 76.1701C26.3247 77.1567 27.9342 77.7278 29.5438 77.7278C31.1534 77.7278 31.9842 77.4163 33.0226 76.8451L62.0992 61.2684C64.4876 59.9704 65.9934 57.4781 65.9934 54.7781V32.9188C65.9934 31.2573 65.4222 29.6477 64.3838 28.3496H64.4357V28.2977ZM61.1646 54.7262C61.1646 55.6608 60.6453 56.4916 59.8665 56.9069L30.79 72.4837C30.4265 72.6913 30.0111 72.7952 29.5958 72.7952C29.1804 72.7952 28.5054 72.6394 28.09 72.276L5.91915 55.1935C5.29608 54.7262 4.93263 53.9993 4.93263 53.2204V30.0631C4.93263 29.44 5.14032 28.8688 5.5557 28.4015L22.8459 9.39795C23.1574 9.0345 23.5728 8.77488 24.0401 8.67104L37.8514 5.03647C38.0591 5.03647 38.2668 4.93263 38.4745 4.93263C39.2014 4.93263 39.9283 5.29608 40.4475 5.86723L60.5934 31.3611C60.9569 31.7765 61.1126 32.3476 61.1126 32.9188V54.7781H61.1646V54.7262Z" fill="#00F0FF"></path>
<path d="M20.0422 45.7956L29.9074 65.3703L41.2784 48.5994L20.0422 45.7956Z" fill="#1649DF"></path>
<path d="M9.9173 51.9744L22.4306 61.6319L9.9173 38.4745V51.9744Z" fill="#5BA2FF"></path>
<path d="M37.3323 63.3453L53.6878 54.5704L46.3148 50.0532L37.3323 63.3453Z" fill="#1649DF"></path>
<path d="M19.3671 20.6133L10.5922 30.3228L14.7979 36.7611L19.3671 20.6133Z" fill="#00F0FF"></path>
<path d="M25.9614 15.8883L19.6269 37.9034L38.319 28.4535L25.9614 15.8883Z" fill="#00F0FF"></path>
<path d="M56.1802 50.2609V33.7496L42.7323 16.8229L47.8726 45.1206L56.1802 50.2609Z" fill="#1649DF"></path>
<path d="M42.5765 43.7186L40.6035 32.8668L23.9883 41.2782L42.5765 43.7186Z" fill="#5BA2FF"></path>
<path d="M29.4922 12.3576L38.5786 21.5998L36.5536 10.5403L29.4922 12.3576Z" fill="#00F0FF"></path>
<path d="M60.5935 31.361L40.4476 5.8671C39.9803 5.24403 39.2533 4.9325 38.4745 4.9325C37.6957 4.9325 38.0591 4.9325 37.8514 5.03634L24.0401 8.67091C23.5728 8.77475 23.1574 9.03436 22.8459 9.39782L5.55572 28.4014C5.14034 28.8687 4.93265 29.4399 4.93265 30.0629V53.2203C4.93265 53.9992 5.2961 54.7261 5.91917 55.1934L28.09 72.2758C28.5573 72.6393 29.0766 72.7951 29.5958 72.7951C30.115 72.7951 30.4265 72.6912 30.79 72.4835L59.8665 56.9068C60.6973 56.4914 61.1646 55.6088 61.1646 54.7261V32.8667C61.1646 32.2956 60.9569 31.7764 60.6454 31.3091H60.5935V31.361ZM9.9172 51.9742V38.4224L22.4305 61.5798L9.9172 51.9742ZM36.5534 10.5401L38.5784 21.5996L29.4919 12.3574L36.5534 10.4882V10.5401ZM38.3187 28.4533L19.6267 37.9032L25.9093 15.8881L38.2668 28.5053L38.3187 28.4533ZM40.6033 32.8667L42.5245 43.7185L23.9882 41.2782L40.6033 32.8667ZM19.3671 20.6131L14.746 36.7609L10.5403 30.3225L19.3671 20.6131ZM20.0421 45.7954L41.2783 48.5992L29.9073 65.3702L20.0421 45.7954ZM46.3148 50.0531L53.6359 54.6222L37.2803 63.3452L46.2629 50.0531H46.3148ZM56.18 50.2607L47.8725 45.1204L42.7322 16.8227L56.1281 33.8013V50.3127H56.18V50.2607Z" fill="#152356"></path>
</g>
<defs>
<clipPath id="clip0_13869_5591">
<rect width="289" height="77.7278" fill="white"></rect>
</clipPath>
</defs>
</svg>